<!DOCTYPE svg PUBLIC "-//W3C//DTD SVG 1.1//EN" "http://www.w3.org/Graphics/SVG/1.1/DTD/svg11.dtd">
<!-- Uploaded to: SVG Repo, www.svgrepo.com, Transformed by: SVG Repo Mixer Tools -->
<svg fill="#000000" width="64px" height="64px" viewBox="0 0 32 32" version="1.1" xmlns="http://www.w3.org/2000/svg">
<g id="SVGRepo_bgCarrier" stroke-width="0"/>
<g id="SVGRepo_tracerCarrier" stroke-linecap="round" stroke-linejoin="round"/>
<g id="SVGRepo_iconCarrier"> <title>guillotine</title> <path d="M9.945 1.916v5.877l12.807-3.186v-2.691c0 0-12.807 0-12.807 0zM22.752 5.742l-12.807 3.186v2.812l12.807-3.223v-2.775zM23.76 1.921h1.734v27.983h-1.734v-27.983zM7.128 1.921h1.734v27.983h-1.734v-27.983zM9.945 23.194v2.822h4.226c0.238-1.097 1.156-1.915 2.252-1.915s2.012 0.818 2.25 1.915h4.079v-2.759l-12.807-0.062zM9.945 27.117v2.738h12.807v-2.738h-4.071c-0.229 1.111-1.153 1.942-2.258 1.942s-2.029-0.831-2.258-1.942h-4.22z"/> </g>
</svg>